<svg xmlns="http://www.w3.org/2000/svg" viewBox="0 0 511.998 511.998"><path d="M299.912 77.528c-1.595-4.908-5.758-8.418-10.865-9.159l-14.496-2.106-6.482-13.134a13.376 13.376 0 0 0-12.07-7.504c-5.161 0-9.786 2.875-12.069 7.503l-6.482 13.135-14.495 2.106a13.372 13.372 0 0 0-10.865 9.159c-1.595 4.908-.291 10.195 3.406 13.799l10.489 10.223-2.476 14.438a13.373 13.373 0 0 0 5.355 13.164 13.41 13.41 0 0 0 7.898 2.585c2.139 0 4.289-.517 6.275-1.561L256 123.36l12.965 6.815c4.567 2.399 9.999 2.01 14.174-1.024a13.373 13.373 0 0 0 5.355-13.164l-2.476-14.438 10.489-10.224c3.695-3.601 5-8.888 3.405-13.797zM272.724 93.56a7.499 7.499 0 0 0-2.157 6.639l2.615 15.247-13.692-7.198a7.502 7.502 0 0 0-6.979 0l-13.692 7.198 2.615-15.247a7.504 7.504 0 0 0-2.157-6.639l-11.079-10.797 15.309-2.225a7.498 7.498 0 0 0 5.647-4.103L256 62.566l6.846 13.87a7.5 7.5 0 0 0 5.647 4.103l15.309 2.225-11.078 10.796z"/><path d="M425.526 230.268c-.106 0-.211.007-.317.008V22.628C425.209 10.15 415.058 0 402.581 0c-10.578 0-19.481 7.297-21.947 17.121h-34.547a7.5 7.5 0 0 0-7.5 7.5 7.5 7.5 0 0 0 7.5 7.5h33.866V154.67H132.045V32.121H311.91a7.5 7.5 0 0 0 7.5-7.5 7.5 7.5 0 0 0-7.5-7.5H131.365C128.899 7.297 119.996 0 109.418 0 96.941 0 86.79 10.15 86.79 22.628v207.648c-.106-.001-.211-.008-.317-.008-16.624 0-30.148 13.524-30.148 30.147 0 16.624 13.524 30.148 30.148 30.148 5.708 0 11.05-1.595 15.605-4.362l117.266 92.011L100.323 471.6c-9.796 7.727-11.481 21.982-3.755 31.779a22.479 22.479 0 0 0 15.112 8.459c.904.107 1.805.16 2.701.16 5.056 0 9.933-1.683 13.952-4.853L256 406.972l127.652 100.161c4.032 3.18 8.91 4.864 13.967 4.864.896 0 1.797-.053 2.7-.16a22.479 22.479 0 0 0 15.112-8.459 22.479 22.479 0 0 0 4.705-16.667c-.709-6.003-3.713-11.37-8.474-15.124l-60.158-47.202a7.5 7.5 0 0 0-10.53 1.271 7.5 7.5 0 0 0 1.271 10.53l60.143 47.19a7.578 7.578 0 0 1 2.852 5.095 7.575 7.575 0 0 1-1.586 5.618 7.58 7.58 0 0 1-5.094 2.853 7.615 7.615 0 0 1-5.633-1.598l-263.12-206.452c9.791 1.756 20.145 3.292 30.966 4.599.375.489.809.943 1.316 1.341l153.073 120.106a7.473 7.473 0 0 0 4.625 1.6 7.5 7.5 0 0 0 4.634-13.4l-31.766-24.925 117.266-92.011a29.962 29.962 0 0 0 15.604 4.361c16.624 0 30.148-13.524 30.148-30.148.001-16.623-13.524-30.147-30.147-30.147zM243.85 397.441l-124.792 97.917a7.615 7.615 0 0 1-5.618 1.586 7.573 7.573 0 0 1-5.094-2.853c-2.604-3.303-2.037-8.108 1.251-10.701l121.897-95.644 12.356 9.695zM86.473 275.562c-8.353 0-15.148-6.795-15.148-15.148s6.795-15.147 15.148-15.147 15.148 6.795 15.148 15.147-6.795 15.148-15.148 15.148zm15.316-41.098V22.628h.001c0-4.206 3.422-7.628 7.628-7.628 4.206 0 7.627 3.422 7.627 7.628V191.91c0 4.143 3.358 7.5 7.5 7.5s7.5-3.357 7.5-7.5v-22.24h247.909v81.698c-35.34 6.359-78.521 9.806-123.954 9.806-45.434 0-88.614-3.447-123.954-9.806v-25.28c0-4.143-3.358-7.5-7.5-7.5s-7.5 3.357-7.5 7.5v22.301c-1.099-.24-2.186-.485-3.266-.731a30.355 30.355 0 0 0-11.991-13.194zm86.381 61.768c21.494 1.725 44.319 2.622 67.829 2.622 23.489 0 46.323-.899 67.833-2.627l-67.834 53.225-67.828-53.22zm92.336 72.448l-12.357-9.695 81.763-64.154a7.473 7.473 0 0 0 1.318-1.344c10.82-1.307 21.176-2.843 30.967-4.598L280.506 368.68zm-24.507-84.826c-52.665 0-103.497-4.809-141.147-13.273a29.937 29.937 0 0 0 1.599-6.981c38.414 8.123 87.607 12.573 139.548 12.573s101.134-4.45 139.548-12.573c.256 2.423.801 4.76 1.598 6.979-37.635 8.46-88.566 13.275-141.146 13.275zm154.21-49.391a30.341 30.341 0 0 0-11.99 13.194c-1.08.247-2.167.491-3.266.731V22.628c.001-4.206 3.422-7.628 7.628-7.628s7.628 3.422 7.628 7.628v211.835zm15.317 41.099c-8.353 0-15.148-6.796-15.148-15.148s6.795-15.147 15.148-15.147 15.148 6.795 15.148 15.147-6.796 15.148-15.148 15.148z"/></svg>