<svg xmlns="http://www.w3.org/2000/svg" viewBox="0 0 512 512"><path d="M30 318.5v-155H0v185h211v-30zM486.007 163.5L472.5 183.604 458.993 163.5H433v105h-10v-105h-30v135h70v-75.243l9.5 14.139 9.5-14.139V318.5H301v30h211v-185z"/><path d="M353 193.5v-30h-50v115h30v-35h20v-30h-20v-20zM358 163.5h30v125h-30zM85 163.5V261c0 4.136-3.364 7.5-7.5 7.5S70 265.136 70 261v-97.5H40V261c0 20.678 16.822 37.5 37.5 37.5S115 281.678 115 261v-97.5H85zM297.825 193.5v-30h-28.534c-11.028 0-20 8.972-20 20V216c0 10.535 8.188 19.194 18.534 19.947V248.5h-18.534v30h28.534c11.028 0 20-8.972 20-20V226c0-10.535-8.188-19.194-18.534-19.947V193.5h18.534zM220.486 163.5H188.49l-21.298 95H150v-65h18.534v-30H140c-11.028 0-20 8.972-20 20v85c0 11.028 8.972 20 20 20h51.212l13.335-59.484 11.12 49.16v.324h.073l.296 1.31 5.789-1.31h23.842v-3.676L220.486 163.5zM241 318.5h30v30h-30z"/></svg>