<svg xmlns="http://www.w3.org/2000/svg" viewBox="0 0 213.563 213.563"><path d="M158.339 68.332l-38.012 38.013a35.848 35.848 0 0 0-15.451-15.468l38.011-38.011a89.239 89.239 0 0 1 8.221 7.238 87.612 87.612 0 0 1 7.231 8.228zm-84.523 69.063a20.643 20.643 0 0 0 14.693 6.086c5.55 0 10.768-2.162 14.692-6.086 8.102-8.102 8.102-21.284 0-29.386a20.644 20.644 0 0 0-14.692-6.086 20.646 20.646 0 0 0-14.694 6.086c-8.1 8.102-8.1 21.285.001 29.386zm136.3-22.834l-.084-.084a11.763 11.763 0 0 0-8.372-3.467 11.76 11.76 0 0 0-8.372 3.468l-9.503 9.503-.132-.005 24.608-57.434a7.5 7.5 0 0 0-1.59-8.257l-8.536-8.536-73.886 73.887c-.229 8.848-3.702 17.628-10.44 24.366-6.759 6.758-15.743 10.48-25.3 10.48-9.558 0-18.542-3.722-25.301-10.48-13.949-13.95-13.949-36.648 0-50.599 6.542-6.541 15.17-10.227 24.384-10.457l73.869-73.869-8.536-8.536a7.502 7.502 0 0 0-8.257-1.59L62.994 37.946a88.076 88.076 0 0 0-21.663 9.855 7.5 7.5 0 0 0-2.2 10.56L24.168 73.324a7.504 7.504 0 0 0-10.56 2.2C3.064 92.233-1.597 112.311.485 132.059c2.112 20.051 11.143 38.959 25.425 53.242 16.712 16.711 38.932 25.915 62.568 25.916h.003c16.769 0 33.094-4.708 47.207-13.613a7.503 7.503 0 0 0 2.2-10.56l14.962-14.963a7.498 7.498 0 0 0 10.561-2.2 87.561 87.561 0 0 0 8.784-18.429l13.854.497a7.474 7.474 0 0 0 5.63-2.261c.041-.039.085-.073.125-.113l18.29-18.291c2.236-2.236 3.469-5.21 3.469-8.373s-1.233-6.136-3.447-8.35z"/></svg>